<svg width="69" height="77" viewBox="0 0 69 77" fill="none" xmlns="http://www.w3.org/2000/svg">
<path d="M68 36.9624C67.6996 37.2027 66.4147 37.6875 65.7889 37.9236L65.7875 37.9241L65.7866 37.9244C65.6936 37.9595 65.6153 37.9891 65.5571 38.0114C65.1424 38.1842 64.7277 38.3052 64.313 38.3743C63.8983 38.4434 63.5182 38.478 63.1726 38.478C62.1704 38.478 61.2201 38.2015 60.3216 37.6486C59.4231 37.0957 58.5419 36.2317 57.6779 35.0568C56.8485 33.8472 55.9846 32.3267 55.0861 30.4951C53.9802 28.2143 52.8398 26.1754 51.6648 24.3784C50.4899 22.5814 49.194 21.0263 47.7771 19.7131H41.3535L68 36.9624ZM68 36.9624V36.7672M68 36.9624V36.7672M68 36.7672C68.0313 36.7593 68.0589 36.752 68.0823 36.7457L68 36.444H67.6873V36.5204C67.0728 36.6606 65.9206 36.8807 65.6089 36.7674C65.1942 36.6637 64.7104 36.2663 64.1575 35.5751C63.6046 34.884 62.9653 33.8472 62.2396 32.4649C61.5484 31.0826 60.7363 29.3202 59.8032 27.1776L68 36.7672ZM0.687337 37.7004V38.0131H1H16.8291H17.1418V37.7004V37.1821V36.9617L16.9343 36.8876C15.5031 36.3765 14.2662 35.7655 13.2204 35.0571C12.1713 34.3464 11.278 33.5537 10.5383 32.6799C9.7959 31.7684 9.18917 30.7906 8.71726 29.746C8.24411 28.6642 7.88845 27.5135 7.65085 26.2933C7.447 25.0344 7.34464 23.6879 7.34464 22.2531V6.91103H7.5544L31.6049 37.3547V37.7004V38.0131H31.9175H32.125H32.2765H35.4904H35.803H40.9511H41.2638V37.7004V37.2028L41.3507 36.5494L41.3535 36.5289V36.5082V20.0257H47.654C49.0155 21.3022 50.2655 22.8095 51.4032 24.5495C52.5697 26.3336 53.7037 28.3606 54.8047 30.6315L54.8054 30.6328C55.7082 32.4731 56.5795 34.0078 57.4201 35.2336L57.4199 35.2337L57.426 35.242C58.3053 36.4378 59.2145 37.3344 60.1577 37.9149C61.1028 38.4965 62.1095 38.7906 63.1726 38.7906C63.5386 38.7906 63.9362 38.7541 64.3644 38.6827C64.8029 38.6096 65.2393 38.4823 65.6732 38.3018C65.7292 38.2803 65.805 38.2517 65.8954 38.2176C66.1613 38.1173 66.5529 37.9695 66.9343 37.8158C67.1921 37.7119 67.4503 37.6032 67.6676 37.5021C67.8747 37.4057 68.0756 37.3023 68.1953 37.2065L68.3127 37.1126V36.9624V36.444V36.0347L67.9177 36.1424C67.739 36.1911 67.2465 36.3044 66.7523 36.3881C66.5054 36.4299 66.2648 36.4632 66.0663 36.4779C65.967 36.4853 65.8834 36.4876 65.8176 36.485C65.785 36.4837 65.7596 36.4813 65.7407 36.4785C65.7329 36.4773 65.7271 36.4762 65.723 36.4753C65.7169 36.4739 65.7147 36.4731 65.7158 36.4735L65.7005 36.468L65.6848 36.464C65.3777 36.3873 64.9495 36.0646 64.4017 35.3798C63.8675 34.7121 63.2395 33.6968 62.5178 32.3223C61.8303 30.9472 61.0211 29.1911 60.0899 27.0527L60.0899 27.0527L60.0876 27.0476C59.5275 25.8224 58.9126 24.7495 58.2414 23.831C57.5685 22.9103 56.8049 22.128 55.9501 21.4865C55.1277 20.8433 54.1996 20.3442 53.168 19.9883C52.334 19.6905 51.4287 19.4813 50.4532 19.3592C52.5956 19.0922 54.4728 18.652 56.0817 18.0352L56.0817 18.0353L56.0859 18.0336C58.1952 17.1898 59.818 16.0733 60.9317 14.6721L60.9341 14.6691C62.0491 13.2304 62.6065 11.5729 62.6065 9.70858C62.6065 7.72284 62.1273 6.04782 61.1479 4.70493C60.1701 3.32958 58.7294 2.32829 56.8503 1.68968C54.9755 1.01799 52.692 0.687337 50.0086 0.687337H39.7426H39.43H31.9175H31.6049H25.9524H25.6397V1V1.51837V1.75421L25.8665 1.819C27.0515 2.15757 28.0949 2.61288 28.9997 3.18255L28.9995 3.18279L29.0112 3.18943C29.9501 3.72596 30.7517 4.37791 31.4185 5.14476C32.0902 5.91716 32.6444 6.77358 33.0815 7.71493L33.0812 7.71506L33.0875 7.72719C33.5563 8.63125 33.8924 9.62136 34.0945 10.6993C34.298 11.7847 34.4001 12.9231 34.4001 14.1147V30.338H34.1908L10.9581 0.806678L10.8642 0.687337H10.7124H1H0.687337V1V1.51837V1.72883L0.882321 1.80804C1.9478 2.24089 2.78388 2.83461 3.40262 3.58362L3.40257 3.58367L3.40704 3.58885C4.02793 4.30777 4.31591 5.0155 4.31591 5.71714V36.2482L0.94291 36.8747L0.687337 36.9221V37.1821V37.7004ZM50.124 17.7555L50.1217 17.7561C48.8445 18.1595 47.3911 18.3637 45.7579 18.3637C44.5204 18.3637 43.5614 18.3465 42.8785 18.3126C42.3078 18.2554 41.7997 18.1865 41.3535 18.1064V2.4605C42.1412 2.34417 43.0282 2.25495 44.015 2.19328C45.1126 2.12468 46.4017 2.09021 47.8832 2.09021C49.6806 2.09021 51.1862 2.39555 52.4118 2.99179L52.4147 2.99318C53.6715 3.58851 54.6053 4.45926 55.2285 5.60713L55.2283 5.60722L55.2338 5.61649C55.8895 6.73129 56.2273 8.1414 56.2273 9.86409C56.2273 11.1708 55.9763 12.3516 55.4793 13.4118L55.4793 13.4118L55.4775 13.4158C55.0141 14.4419 54.3361 15.319 53.4396 16.0495C52.5427 16.7803 51.4397 17.3506 50.124 17.7555Z" fill="#86A8C4" stroke="#86A8C4" stroke-width="0.625327"/>
<path d="M26.9438 42.3719C30.3263 41.7762 32.0708 36.7191 32.5388 34.9321L32.7515 34.0173H34.4322C35.7937 34.0173 36.1341 34.0811 36.3043 34.3789C36.517 34.7406 36.517 34.7406 36.5383 34.3789C36.5383 34.0811 37.5242 34.0173 38.3539 34.0173L40.474 33.6421L41.5589 35.2679C41.9844 36.6082 41.1122 40.8469 43.4949 41.2085C43.4949 41.2085 50.0328 41.9215 54.3445 42.3719C58.6563 42.8223 61.8542 44.0313 61.8542 44.0313C62.4924 44.244 63.8114 44.7971 64.79 45.2652L64.8555 45.2975C66.5137 46.1162 66.5345 46.1265 66.5345 46.9245C66.5345 48.4137 66.4068 48.4775 65.1942 47.6478C62.1521 45.5417 59.6417 44.5844 56.0039 44.0738C53.1319 43.6909 50.494 43.5207 50.728 43.7547C51.2173 44.244 54.5786 45.9885 57.1527 47.0734C61.7904 49.0306 63.705 50.456 64.8326 52.7961C65.2793 53.6896 65.2793 53.7534 64.9389 54.7959L64.5773 55.8595L64.0242 54.8171C63.003 52.9663 61.216 51.3069 59.0248 50.2007C58.4504 49.9029 56.0464 49.0094 53.7063 48.2009C51.3449 47.4138 48.8346 46.499 48.1326 46.1799C45.7924 45.1162 41.644 44.3504 41.644 44.9886C41.644 45.329 43.9629 47.5415 45.1117 48.3073C45.7286 48.7115 48.0687 49.8178 50.3238 50.7325C52.5788 51.6686 55.0679 52.7748 55.855 53.2216C58.8759 54.8809 61.0245 57.0934 61.9606 59.5612C62.3222 60.4973 62.3222 60.4973 61.7478 61.4759C61.4287 62.0077 61.1096 62.4544 61.0245 62.4544C60.9394 62.4544 60.748 62.0928 60.5991 61.646C59.3439 58.1571 55.3019 54.6044 50.8343 53.0727L49.6856 52.6685L49.8345 53.4769C50.0898 54.7959 50.9833 56.3914 52.3661 57.9231C53.0894 58.7102 53.9829 59.7527 54.3445 60.2207C55.5359 61.7737 56.791 64.6244 57.0889 66.4539C57.1952 67.156 57.1314 67.3049 56.4507 67.8155L55.7273 68.4111L54.9189 65.9434C54.0254 63.1352 52.9405 61.3269 51.4726 60.2207C50.962 59.8165 50.4301 59.4761 50.3025 59.4761C50.0259 59.4761 50.3025 64.0074 50.7067 65.9008C51.0896 67.7304 51.4938 68.7302 52.281 69.7301C52.6426 70.1556 52.9192 70.5598 52.9192 70.6023C52.9192 70.6449 52.515 70.964 52.047 71.2831L51.1747 71.8575L50.4301 71.1342C49.5154 70.262 48.7921 68.8792 48.4729 67.3474C48.324 66.7092 48.1326 64.1138 48.0262 61.6035C47.8986 58.6677 47.7071 56.6467 47.5156 55.9659C47.0689 54.498 45.8563 52.5621 44.5586 51.2218C43.4523 50.073 40.6229 47.8606 40.474 48.0095C40.4314 48.052 40.7505 48.669 41.1547 49.371C42.112 50.9666 43.0268 53.2429 43.4949 55.1362C44.0054 57.2423 43.9629 61.4546 43.3885 64.5818C43.1545 65.9221 42.8992 67.5176 42.8354 68.092C42.6652 69.4961 43.0056 72.1128 43.5587 73.6445C43.7927 74.3253 43.9416 74.8997 43.8991 74.9422C43.8565 74.9848 43.4949 75.0699 43.0906 75.1337C42.3886 75.2613 42.3461 75.2188 42.0057 74.3465C41.1122 71.9851 41.0058 69.6025 41.5589 65.1137C42.1759 60.2207 41.7717 57.8593 39.5805 53.3067L38.6019 51.2857L38.3253 52.9876C38.1764 53.9449 37.6871 55.8595 37.2616 57.2423C36.0065 61.2844 35.9001 61.8162 35.9001 63.5181C35.9001 64.6457 36.0915 65.7519 36.5383 67.3049C37.1552 69.4323 37.602 72.6659 37.602 74.8997C37.602 76.1548 37.4743 76.2825 36.0915 76.2825H35.2619V75.2401C35.2619 73.6871 34.8577 70.1981 34.5173 68.6239L34.5173 68.6238C33.4961 64.1138 33.4961 64.1138 33.7301 62.5395C33.8578 61.7311 34.3471 59.6676 34.8151 57.9657C35.9426 53.9874 36.1979 52.0941 35.9001 50.2007C35.6661 48.6903 34.8789 46.7969 34.5386 46.8607C34.4109 46.882 33.7514 48.6052 33.0281 50.69C32.3048 52.7748 31.3687 55.1788 30.922 56.051C30.1987 57.4764 30.1349 57.7316 30.22 58.923C30.2625 59.625 30.5178 61.1993 30.7518 62.4119C31.6666 66.7305 31.2411 71.4958 29.6881 74.3891C28.9861 75.7293 28.9648 75.7506 27.7947 75.4315L27.0076 75.2188L27.5394 73.9211C28.6457 71.1767 28.9435 69.411 28.8159 66.3901C28.7095 63.7309 28.1351 59.9016 27.8373 59.9016C27.6033 59.9016 24.0505 63.7734 23.0294 65.1137C21.7742 66.7943 20.4552 69.3259 20.051 70.8576C19.8808 71.5384 19.6894 72.1341 19.6468 72.1766C19.6043 72.2404 19.3065 72.1128 19.0086 71.9213C18.5619 71.6235 18.4555 71.3895 18.4555 70.6662C18.4555 68.7941 19.6468 65.9859 21.4977 63.5181C21.987 62.8799 23.5825 60.9015 25.0504 59.157C27.8798 55.7532 29.0712 54.0938 29.7519 52.5621C30.2625 51.4133 30.4752 49.8178 30.2838 48.7541L30.1349 47.9669L28.6031 49.2434C26.8161 50.7113 23.2421 53.0514 20.9658 54.264L19.3703 55.0937L19.2426 56.6041C18.9448 60.242 16.7749 63.7947 13.4349 66.0923L12.4563 66.7518L11.733 66.0497L11.0096 65.3477L12.3712 64.4542C15.073 62.6459 16.7536 59.6676 16.7536 56.7105V55.4341H15.8601C12.9456 55.4553 10.0736 57.1785 8.5206 59.9016L7.90365 60.9653L7.41435 60.1143L6.92506 59.2634L7.41435 58.2422C8.13767 56.7743 9.71193 55.3064 11.4989 54.4767C12.3286 54.0725 14.4773 53.3705 16.2217 52.8812C20.0936 51.8388 21.838 51.0091 24.1994 49.1157C25.8801 47.7542 27.9649 45.5204 27.7309 45.2864C27.5182 45.0737 19.1575 46.2863 17.1791 46.8394C13.3498 47.8818 10.2651 50.1369 6.86123 54.3491C6.18047 55.1788 5.56353 55.7957 5.45716 55.7532C5.35079 55.6894 5.15932 55.2639 5.03168 54.8171C4.79767 54.03 4.81894 53.9236 5.56353 52.8174C6.98888 50.6687 9.86085 47.7117 13.0732 45.0737C13.7965 44.478 14.3284 43.9249 14.2645 43.8611C13.5838 43.2016 5.989 44.9248 4.07436 46.1799C3.7978 46.3501 3.52123 46.499 3.45741 46.499C3.39359 46.499 3.35104 45.9885 3.39359 45.3928L3.45741 44.2866L4.47856 43.9036C5.03168 43.6909 6.45703 43.2654 7.66964 42.9463C10.1374 42.2868 12.2435 42.223 20.4765 42.5421C24.242 42.691 25.2631 42.6697 26.9438 42.3719Z" fill="#86A8C4"/>
</svg>
